<svg xmlns="http://www.w3.org/2000/svg" width="780.137" height="180.697" viewBox="0 0 780.137 180.697">
  <g id="tristate_logo" data-name="tristate logo" transform="translate(-114.859 -534.115)">
    <g id="Group_10" data-name="Group 10" transform="translate(114.859 534.754)">
      <g id="Group_9" data-name="Group 9">
        <g id="Group_7" data-name="Group 7" transform="translate(0 108.234)">
          <path id="Path_27" data-name="Path 27" d="M114.859,264.737h80.275v-14.7H161.622S143.78,248.829,155,231.953s24.585-36.163,24.585-36.163H160.772Z" transform="translate(-114.859 -195.79)" fill="#e93231"/>
        </g>
        <g id="Group_8" data-name="Group 8" transform="translate(152.591 108.234)">
          <path id="Path_28" data-name="Path 28" d="M223.842,264.737H143.577v-14.7h33.5s17.842-1.206,6.636-18.082-24.6-36.163-24.6-36.163h18.8Z" transform="translate(-143.577 -195.79)" fill="#e93231"/>
        </g>
        <path id="Path_29" data-name="Path 29" d="M128.456,244.123h19.66s15.542-23.012,18.374-26.636,9.527-11.27,17.906,1.27,16.684,25.313,16.684,25.313L220.245,244l-45.855-68.58Z" transform="translate(-56.209 -175.42)" fill="#e93231"/>
      </g>
    </g>
    <path id="Path_30" data-name="Path 30" d="M164.989,249.929c.112-.138.17-.2.229-.271q5.858-6.488,11.732-12.97a.638.638,0,0,1,.531-.239q9.006.016,18.023.011a12.5,12.5,0,0,0,2.917-.287,4.731,4.731,0,0,0,1.488-.611,3.718,3.718,0,0,0,1.748-2.625,10.229,10.229,0,0,0,.011-2.96,3.814,3.814,0,0,0-2.327-2.991,6.353,6.353,0,0,0-2.247-.574c-.569-.053-1.148-.069-1.716-.069-4.649-.011-9.3,0-13.937-.016a24.121,24.121,0,0,1-7.014-1,15.452,15.452,0,0,1-3.916-1.769,11.04,11.04,0,0,1-4.872-6.567,16.974,16.974,0,0,1-.6-4.5c-.011-2.848-.011-5.691.021-8.523,0-.786.128-1.546.191-2.322a1.841,1.841,0,0,0,.027-.218h-6.323v48.251c-.229.064-11.238.074-11.6.005V201.45c-6.445.058-12.848.112-19.277.165.016-.138.117-.181.181-.234q2.845-2.407,5.7-4.809c1.966-1.647,3.916-3.289,5.871-4.941a.913.913,0,0,1,.664-.244q19.479.024,38.979.037,16.347,0,32.709-.037h.43c-.09.112-.133.175-.191.244q-3.969,4.758-7.943,9.527a.576.576,0,0,1-.494.186q-10.066,0-20.122-.011a6.681,6.681,0,0,0-3.826,1.164c-.42.282-.829.6-1.222.909a3.631,3.631,0,0,0-1.259,2.29,7.443,7.443,0,0,0-.074,1.089c-.016.808-.011,1.615-.011,2.428a4.15,4.15,0,0,0,.144,1.227,2.378,2.378,0,0,0,.5.935,4.491,4.491,0,0,0,2.758,1.525,17.521,17.521,0,0,0,2.476.181h14.033a20.5,20.5,0,0,1,7.938,1.536,17.013,17.013,0,0,1,7.54,5.946,12.571,12.571,0,0,1,2.455,7.492c0,2.455.011,4.915,0,7.37a15.849,15.849,0,0,1-.9,5.4,12.282,12.282,0,0,1-5.462,6.434,18.068,18.068,0,0,1-5.457,2.046,28.581,28.581,0,0,1-6.164.622H164.989Z" transform="translate(56.989 428.202)" fill="#1a1818" fill-rule="evenodd"/>
    <g id="Group_11" data-name="Group 11" transform="translate(347.713 534.115)">
      <path id="Path_31" data-name="Path 31" d="M186.168,244.54v32.348H173.294l-.059-.058c-.021-.016-.069-.048-.069-.074-.027-.409-.069-.808-.069-1.2q.016-49.869.053-99.738c0-.069.064-.122.165-.3h1.01q13.254,0,26.519.011a23.98,23.98,0,0,1,6.025,1.057c11.743,3.167,21.477,12.651,24.319,24.362,3.092,12.726.367,24.112-9,33.591-1.626,1.668-3.4,3.209-5.175,4.718a15.307,15.307,0,0,1-5.026,3c-.021.064-.053.1-.064.133s-.016.069,0,.1a3.324,3.324,0,0,0,.2.388q10.9,16.9,21.78,33.788c.021.043.011.074.021.112-.76.26-12.247.372-15.653.149-.186-.3-.414-.632-.622-.956q-9.468-15.207-18.921-30.435a1.827,1.827,0,0,0-1.807-1.02c-3.14.058-6.286.032-9.431.032Zm.074-13.268c.335.027.553.059.765.059,3.773,0,7.529.042,11.286-.021a24.715,24.715,0,0,0,4.245-.457A21.2,21.2,0,0,0,218.984,206.7c-1.026-6.87-4.846-11.865-10.728-15.356a17.4,17.4,0,0,0-8.528-2.5c-4.309-.1-8.624-.064-12.933-.08a3.567,3.567,0,0,0-.553.1Z" transform="translate(-96.509 -174.38)" fill="#1a1818" fill-rule="evenodd"/>
      <path id="Path_32" data-name="Path 32" d="M220.934,276.477q18.26-50.507,36.477-100.8h7.125q18.275,50.347,36.625,100.8Zm18.81-12.37c2.237.266,42.289.133,43.076-.143-7.269-19.963-14.543-39.936-22.04-59.866Q250.275,234.089,239.744,264.107Z" transform="translate(109.832 -173.677)" fill="#1a1818" fill-rule="evenodd"/>
      <path id="Path_33" data-name="Path 33" d="M305.8,263.818v13.007c-.824.218-52.018.308-54.117.106-.234-.755-.351-99.138-.117-101.21.818-.2,51.737-.314,54.107-.106a116.929,116.929,0,0,1,.064,13.1h-41.1v30.919c.441.005.9.027,1.355.027H305.8v13.161H264.623v31H305.8Z" transform="translate(241.396 -174.418)" fill="#e93231" fill-rule="evenodd"/>
      <path id="Path_34" data-name="Path 34" d="M193.787,249.141c4.2-1.536,8.353-3.045,12.6-4.6.069.335.149.6.186.861a42.171,42.171,0,0,0,1.971,8.751,17.719,17.719,0,0,0,16.833,11.748,18.6,18.6,0,0,0,17.911-13.958c1.5-6.764.08-12.768-4.856-17.763a36.238,36.238,0,0,0-13.677-8.661,45.925,45.925,0,0,1-14.686-8.353,23.239,23.239,0,0,1-8.353-18.422c-.016-11.695,8.47-19.537,15.334-21.987,8.629-3.077,19.038-1.493,26.041,6.615a25.606,25.606,0,0,1,4.261,7.492c.441,1.111.818,2.237,1.275,3.48-4,1.589-7.89,3.124-11.854,4.686-.159-.351-.276-.638-.409-.94-.606-1.366-1.185-2.747-1.828-4.1-3.087-6.53-12.13-7.375-16.859-2.327a10.576,10.576,0,0,0,.1,14.67,28.8,28.8,0,0,0,4.261,3.417,30.319,30.319,0,0,0,7.205,3.645,48.888,48.888,0,0,1,18.167,11.349,30.535,30.535,0,0,1,9.426,23.693,31.765,31.765,0,0,1-19.617,28.278,31.078,31.078,0,0,1-14.389,2.125c-10.563-.866-18.517-6.015-24.107-14.9a36.37,36.37,0,0,1-4.644-12.906C193.968,250.433,193.893,249.827,193.787,249.141Z" transform="translate(-7.264 -175.3)" fill="#e93231" fill-rule="evenodd"/>
      <path id="Path_35" data-name="Path 35" d="M195.373,276.843H182.222v-88.2h-23.3a111.788,111.788,0,0,1-.08-13.119h59.887a117.229,117.229,0,0,1,.053,13.076H195.373Z" transform="translate(-158.683 -174.32)" fill="#1a1818" fill-rule="evenodd"/>
      <path id="Path_36" data-name="Path 36" d="M244.27,276.843H231.119v-88.2H207.8a121.882,121.882,0,0,1-.08-13.119h59.893a117.325,117.325,0,0,1,.043,13.076H244.27Z" transform="translate(52.252 -174.32)" fill="#e93231" fill-rule="evenodd"/>
      <path id="Path_37" data-name="Path 37" d="M260.524,188.639H237.208a123.729,123.729,0,0,1-.053-13.113h59.893a122.827,122.827,0,0,1,.043,13.066H273.834a6.431,6.431,0,0,0-.138.792c-.032.329-.016.648-.016.978v86.492H260.524Z" transform="translate(179.163 -174.329)" fill="#e93231" fill-rule="evenodd"/>
      <path id="Path_38" data-name="Path 38" d="M200.884,276.852h-12.9V175.525h12.9Z" transform="translate(-32.299 -174.329)" fill="#1a1818" fill-rule="evenodd"/>
      <path id="Path_39" data-name="Path 39" d="M277.179,224.631H258.46v-2.869c.786-.234,21.62-.276,22.757-.032a12.593,12.593,0,0,1-.834,4.368,17.383,17.383,0,0,1-16.27,11.7c-6.265.064-11.525-2.184-15.324-7.263a17.35,17.35,0,0,1,10.43-27.348,18.728,18.728,0,0,1,14.219,2.364,14,14,0,0,1,5.207,5.51c.2.377.361.781.6,1.323-1.281,0-2.4.037-3.5-.032-.25-.016-.521-.361-.686-.616a12.54,12.54,0,0,0-7.71-5.388c-6.939-1.716-14.16,1.339-17.115,7.747a14.6,14.6,0,0,0,23.932,15.993A11.1,11.1,0,0,0,277.179,224.631Z" transform="translate(215.243 -57.124)" fill="#1a1818" fill-rule="evenodd"/>
      <path id="Path_40" data-name="Path 40" d="M205.9,207.406c-.011,4.872,0,9.75,0,14.617v14.6H202.6v-33.7c.579-.021,1.19-.058,1.791-.053a6.7,6.7,0,0,1,2.678.165c.685.361,1.063,1.355,1.552,2.067q8.225,12.226,16.456,24.458c.218.324.446.654.8,1.148a31.463,31.463,0,0,0,.1-4.07c.027-1.307.005-2.635.005-3.948V202.926h3.146c.239.728.319,32.215.058,33.745h-2.9c-.521,0-.638-.436-.855-.754q-3.4-5.037-6.8-10.08-5.938-8.815-11.881-17.625c-.2-.292-.415-.563-.622-.855Z" transform="translate(30.759 -56.626)" fill="#1a1818" fill-rule="evenodd"/>
      <path id="Path_41" data-name="Path 41" d="M231.427,237.8a17.831,17.831,0,0,1-17.933-15,17.307,17.307,0,0,1,8.486-17.54,17.817,17.817,0,0,1,26.689,12.024,17.577,17.577,0,0,1-11.881,19.6A16.947,16.947,0,0,1,231.427,237.8Zm14.049-17.455a14.366,14.366,0,1,0-14.325,14.336A14.511,14.511,0,0,0,245.476,220.343Z" transform="translate(76.858 -57.103)" fill="#1a1818" fill-rule="evenodd"/>
      <path id="Path_42" data-name="Path 42" d="M251.221,237.791A17.725,17.725,0,0,1,233.6,222.834a17.454,17.454,0,0,1,10.675-18.709,17.83,17.83,0,0,1,24.5,13.215,17.736,17.736,0,0,1-17.556,20.451ZM265.567,220.3a14.366,14.366,0,1,0-14.277,14.373A14.569,14.569,0,0,0,265.567,220.3Z" transform="translate(163.546 -57.096)" fill="#1a1818" fill-rule="evenodd"/>
      <path id="Path_43" data-name="Path 43" d="M213.3,212.1h-3.682c-.122-.165-.244-.292-.351-.441a12.523,12.523,0,0,0-11.052-5.8c-5.462.016-9.809,2.279-12.492,7.109a14.506,14.506,0,0,0,9.591,21.381,12.86,12.86,0,0,0,12.428-3.772,16.279,16.279,0,0,0,1.456-1.631,1.558,1.558,0,0,1,1.493-.669c.877.042,1.748.011,2.752.011-.175.367-.271.632-.4.871-2.582,4.368-6.211,7.348-11.28,8.289-7.279,1.365-14.67-1.312-18.693-7.651-4.915-7.736-3.114-19.915,6.164-24.968a18.447,18.447,0,0,1,20.079,1.854,14.846,14.846,0,0,1,3.618,4.5A9.024,9.024,0,0,1,213.3,212.1Z" transform="translate(-64.999 -57.104)" fill="#1a1818" fill-rule="evenodd"/>
      <path id="Path_44" data-name="Path 44" d="M192.206,202.821h2.258c.292.005.579.032.988.048V217.5c.882.26,15.935.324,17.5.09V202.906h3.183c.207.8.282,31.923.09,33.666H213V220.993c-.893-.25-15.866-.313-17.481-.1v15.68h-3.31Z" transform="translate(-14.083 -56.589)" fill="#1a1818" fill-rule="evenodd"/>
      <path id="Path_45" data-name="Path 45" d="M171.552,202.828H189.8v3.018H175.043a107.56,107.56,0,0,0-.085,12.1H189.3v3.071c-1.148.064-2.333.016-3.523.027-1.206.005-2.412,0-3.624,0h-7.083a103.333,103.333,0,0,0-.1,12.46H189.8v3.045H171.552Z" transform="translate(-103.173 -56.559)" fill="#1a1818" fill-rule="evenodd"/>
      <path id="Path_46" data-name="Path 46" d="M271.638,236.57H268.28c-.016-.414-.048-.8-.048-1.18-.011-3.034-.016-6.068.016-9.1a3.837,3.837,0,0,0-.478-1.865Q262.461,214.214,257.2,204c-.181-.351-.351-.7-.579-1.153h3.741c3.119,6.158,6.265,12.38,9.527,18.841,3.321-6.429,6.525-12.635,9.756-18.863h3.682c-.218.452-.4.829-.59,1.211-3.517,6.721-7.024,13.464-10.547,20.175a4.682,4.682,0,0,0-.574,2.29c.042,2.96.021,5.919.021,8.884Z" transform="translate(263.77 -56.551)" fill="#1a1818" fill-rule="evenodd"/>
      <path id="Path_47" data-name="Path 47" d="M173.781,205.91v30.658a19.182,19.182,0,0,1-3.417.106V205.958H162.75v-2.9c.744-.25,16.153-.356,18.624-.117v2.965Z" transform="translate(-141.139 -56.634)" fill="#1a1818" fill-rule="evenodd"/>
      <path id="Path_48" data-name="Path 48" d="M225.589,202.83h3.278c.005,2.577,0,5.122,0,7.657.005,2.556,0,5.106,0,7.673v15.356c1.594.043,3.114.011,4.628.021h9.261v2.891c-.733.218-15.462.3-17.168.074Z" transform="translate(129.911 -56.551)" fill="#1a1818" fill-rule="evenodd"/>
    </g>
  </g>
</svg>
